<svg version="1.0" preserveAspectRatio="xMidYMid meet" height="500" viewBox="0 0 375 374.999991" zoomAndPan="magnify" width="500" xmlns:xlink="http://www.w3.org/1999/xlink" xmlns="http://www.w3.org/2000/svg"><defs><g></g><clipPath id="7c5ce7156d"><path clip-rule="nonzero" d="M 87.765625 1.90625 L 287.234375 1.90625 L 287.234375 218 L 87.765625 218 Z M 87.765625 1.90625"></path></clipPath><clipPath id="a4d7c7676a"><path clip-rule="nonzero" d="M 191.820312 3.332031 L 282.914062 66.1875 C 285.617188 68.054688 287.234375 71.128906 287.234375 74.417969 L 287.234375 145.433594 C 287.234375 148.71875 285.617188 151.796875 282.914062 153.664062 L 191.820312 216.519531 C 189.21875 218.316406 185.78125 218.316406 183.179688 216.519531 L 92.085938 153.664062 C 89.382812 151.796875 87.765625 148.71875 87.765625 145.433594 L 87.765625 74.417969 C 87.765625 71.128906 89.382812 68.054688 92.085938 66.1875 L 183.179688 3.332031 C 185.78125 1.535156 189.21875 1.535156 191.820312 3.332031 Z M 191.820312 3.332031"></path></clipPath><clipPath id="38a4e8bc1c"><path clip-rule="nonzero" d="M 132.808594 56.703125 L 242.191406 56.703125 L 242.191406 163.148438 L 132.808594 163.148438 Z M 132.808594 56.703125"></path></clipPath><clipPath id="7508de6e93"><path clip-rule="nonzero" d="M 160.152344 83.3125 L 215 83.3125 L 215 136.535156 L 160.152344 136.535156 Z M 160.152344 83.3125"></path></clipPath><clipPath id="50f5c7ba75"><path clip-rule="nonzero" d="M 162.402344 83.3125 L 212.597656 83.3125 C 213.191406 83.3125 213.765625 83.550781 214.1875 83.972656 C 214.609375 84.394531 214.847656 84.96875 214.847656 85.5625 L 214.847656 134.285156 C 214.847656 134.882812 214.609375 135.457031 214.1875 135.878906 C 213.765625 136.300781 213.191406 136.535156 212.597656 136.535156 L 162.402344 136.535156 C 161.808594 136.535156 161.234375 136.300781 160.8125 135.878906 C 160.390625 135.457031 160.152344 134.882812 160.152344 134.285156 L 160.152344 85.5625 C 160.152344 84.96875 160.390625 84.394531 160.8125 83.972656 C 161.234375 83.550781 161.808594 83.3125 162.402344 83.3125 Z M 162.402344 83.3125"></path></clipPath></defs><g clip-path="url(#7c5ce7156d)"><g clip-path="url(#a4d7c7676a)"><path fill-rule="nonzero" fill-opacity="1" d="M 87.765625 0.347656 L 287.234375 0.347656 L 287.234375 219.292969 L 87.765625 219.292969 Z M 87.765625 0.347656" fill="#004aad"></path></g></g><g clip-path="url(#38a4e8bc1c)"><path fill-rule="nonzero" fill-opacity="1" d="M 132.808594 56.703125 L 242.164062 56.703125 L 242.164062 163.148438 L 132.808594 163.148438 Z M 132.808594 56.703125" fill="#ffffff"></path></g><path stroke-miterlimit="4" stroke-opacity="1" stroke-width="2" stroke="#004aad" d="M 1.000159 1.000989 L 75.839799 0.999424" stroke-linejoin="miter" fill="none" transform="matrix(1.423536, 1.385283, -1.385283, 1.423536, 134.189453, 55.28721)" stroke-linecap="round"></path><g clip-path="url(#7508de6e93)"><g clip-path="url(#50f5c7ba75)"><path fill-rule="nonzero" fill-opacity="1" d="M 160.152344 83.3125 L 214.832031 83.3125 L 214.832031 136.535156 L 160.152344 136.535156 Z M 160.152344 83.3125" fill="#004aad"></path></g></g><g fill-opacity="1" fill="#004aad"><g transform="translate(10.820648, 276.29633)"><g><path d="M 26.390625 -38.640625 C 25.015625 -39.453125 23.691406 -40.050781 22.421875 -40.4375 C 21.160156 -40.820312 19.753906 -41.015625 18.203125 -41.015625 C 17.109375 -41.015625 16.039062 -40.898438 15 -40.671875 C 13.957031 -40.453125 13.035156 -40.09375 12.234375 -39.59375 C 11.441406 -39.101562 10.796875 -38.457031 10.296875 -37.65625 C 9.804688 -36.863281 9.5625 -35.890625 9.5625 -34.734375 C 9.5625 -33.597656 9.863281 -32.613281 10.46875 -31.78125 C 11.070312 -30.957031 11.863281 -30.21875 12.84375 -29.5625 C 13.820312 -28.90625 14.941406 -28.296875 16.203125 -27.734375 C 17.472656 -27.179688 18.765625 -26.597656 20.078125 -25.984375 C 21.390625 -25.367188 22.675781 -24.691406 23.9375 -23.953125 C 25.207031 -23.210938 26.332031 -22.34375 27.3125 -21.34375 C 28.289062 -20.34375 29.082031 -19.171875 29.6875 -17.828125 C 30.300781 -16.492188 30.609375 -14.921875 30.609375 -13.109375 C 30.609375 -11.609375 30.40625 -10.222656 30 -8.953125 C 29.59375 -7.691406 29.03125 -6.554688 28.3125 -5.546875 C 27.59375 -4.535156 26.738281 -3.648438 25.75 -2.890625 C 24.757812 -2.140625 23.675781 -1.507812 22.5 -1 C 21.332031 -0.5 20.097656 -0.125 18.796875 0.125 C 17.492188 0.382812 16.160156 0.515625 14.796875 0.515625 C 10.085938 0.429688 5.984375 -0.691406 2.484375 -2.859375 L 5.25 -7.40625 C 5.65625 -7.132812 6.1875 -6.832031 6.84375 -6.5 C 7.5 -6.164062 8.226562 -5.847656 9.03125 -5.546875 C 9.84375 -5.242188 10.703125 -4.988281 11.609375 -4.78125 C 12.523438 -4.582031 13.445312 -4.484375 14.375 -4.484375 C 15.632812 -4.484375 16.863281 -4.640625 18.0625 -4.953125 C 19.269531 -5.273438 20.34375 -5.765625 21.28125 -6.421875 C 22.21875 -7.078125 22.972656 -7.910156 23.546875 -8.921875 C 24.128906 -9.929688 24.421875 -11.132812 24.421875 -12.53125 C 24.421875 -13.84375 24.113281 -14.988281 23.5 -15.96875 C 22.894531 -16.945312 22.101562 -17.828125 21.125 -18.609375 C 20.144531 -19.390625 19.019531 -20.09375 17.75 -20.71875 C 16.488281 -21.34375 15.203125 -21.96875 13.890625 -22.59375 C 12.578125 -23.226562 11.285156 -23.890625 10.015625 -24.578125 C 8.753906 -25.265625 7.632812 -26.039062 6.65625 -26.90625 C 5.675781 -27.78125 4.882812 -28.773438 4.28125 -29.890625 C 3.675781 -31.015625 3.375 -32.335938 3.375 -33.859375 C 3.375 -35.816406 3.773438 -37.546875 4.578125 -39.046875 C 5.390625 -40.554688 6.457031 -41.828125 7.78125 -42.859375 C 9.101562 -43.890625 10.601562 -44.671875 12.28125 -45.203125 C 13.957031 -45.742188 15.664062 -46.015625 17.40625 -46.015625 C 21.71875 -46.015625 25.691406 -44.800781 29.328125 -42.375 Z M 26.390625 -38.640625"></path></g></g></g><g fill-opacity="1" fill="#004aad"><g transform="translate(44.182674, 276.29633)"><g><path d="M 11.828125 0 L 6.0625 0 L 6.0625 -33.375 L 11.828125 -33.96875 L 11.828125 -28.421875 L 13.6875 -31.671875 C 14.050781 -31.910156 14.503906 -32.160156 15.046875 -32.421875 C 15.585938 -32.691406 16.203125 -32.929688 16.890625 -33.140625 C 17.578125 -33.347656 18.316406 -33.523438 19.109375 -33.671875 C 19.898438 -33.816406 20.707031 -33.890625 21.53125 -33.890625 C 23.800781 -33.890625 25.644531 -33.335938 27.0625 -32.234375 C 28.476562 -31.128906 29.394531 -29.71875 29.8125 -28 L 32.125 -31.546875 C 32.832031 -32.117188 33.832031 -32.648438 35.125 -33.140625 C 36.425781 -33.640625 37.914062 -33.890625 39.59375 -33.890625 C 41.125 -33.890625 42.4375 -33.628906 43.53125 -33.109375 C 44.625 -32.597656 45.519531 -31.851562 46.21875 -30.875 C 46.914062 -29.90625 47.425781 -28.734375 47.75 -27.359375 C 48.070312 -25.984375 48.234375 -24.445312 48.234375 -22.75 L 48.234375 0 L 42.46875 0 L 42.46875 -22.453125 C 42.46875 -23.546875 42.390625 -24.5 42.234375 -25.3125 C 42.085938 -26.132812 41.828125 -26.820312 41.453125 -27.375 C 41.078125 -27.9375 40.578125 -28.351562 39.953125 -28.625 C 39.328125 -28.894531 38.546875 -29.03125 37.609375 -29.03125 C 37.023438 -29.03125 36.414062 -28.925781 35.78125 -28.71875 C 35.144531 -28.519531 34.503906 -28.253906 33.859375 -27.921875 C 33.210938 -27.585938 32.578125 -27.203125 31.953125 -26.765625 C 31.335938 -26.335938 30.757812 -25.898438 30.21875 -25.453125 C 30.28125 -24.867188 30.3125 -24.378906 30.3125 -23.984375 C 30.320312 -23.585938 30.328125 -23.078125 30.328125 -22.453125 L 30.328125 0 L 24.578125 0 L 24.578125 -22.453125 C 24.578125 -24.628906 24.210938 -26.269531 23.484375 -27.375 C 22.753906 -28.476562 21.445312 -29.03125 19.5625 -29.03125 C 18.957031 -29.03125 18.3125 -28.9375 17.625 -28.75 C 16.9375 -28.570312 16.253906 -28.320312 15.578125 -28 C 14.898438 -27.675781 14.238281 -27.304688 13.59375 -26.890625 C 12.945312 -26.472656 12.359375 -26.046875 11.828125 -25.609375 Z M 11.828125 0"></path></g></g></g><g fill-opacity="1" fill="#004aad"><g transform="translate(98.775091, 276.29633)"><g><path d="M 27.90625 0 L 21.53125 0 L 21.53125 -4.921875 L 18.6875 -1.515625 C 18.34375 -1.253906 17.945312 -1 17.5 -0.75 C 17.0625 -0.507812 16.613281 -0.289062 16.15625 -0.09375 C 15.695312 0.09375 15.238281 0.238281 14.78125 0.34375 C 14.332031 0.457031 13.914062 0.515625 13.53125 0.515625 C 12.007812 0.515625 10.554688 0.28125 9.171875 -0.1875 C 7.785156 -0.664062 6.570312 -1.363281 5.53125 -2.28125 C 4.488281 -3.207031 3.660156 -4.351562 3.046875 -5.71875 C 2.429688 -7.082031 2.125 -8.65625 2.125 -10.4375 C 2.125 -12.3125 2.503906 -13.941406 3.265625 -15.328125 C 4.023438 -16.710938 4.992188 -17.863281 6.171875 -18.78125 C 7.359375 -19.707031 8.675781 -20.394531 10.125 -20.84375 C 11.582031 -21.300781 13.007812 -21.53125 14.40625 -21.53125 C 15.5625 -21.53125 16.578125 -21.46875 17.453125 -21.34375 C 18.335938 -21.226562 19.082031 -21.09375 19.6875 -20.9375 C 20.394531 -20.75 21.007812 -20.546875 21.53125 -20.328125 L 21.53125 -21.390625 C 21.53125 -22.578125 21.457031 -23.644531 21.3125 -24.59375 C 21.175781 -25.550781 20.890625 -26.359375 20.453125 -27.015625 C 20.023438 -27.671875 19.398438 -28.171875 18.578125 -28.515625 C 17.765625 -28.859375 16.675781 -29.03125 15.3125 -29.03125 C 14.226562 -29.03125 13.175781 -28.953125 12.15625 -28.796875 C 11.144531 -28.648438 10.25 -28.484375 9.46875 -28.296875 C 8.53125 -28.078125 7.671875 -27.847656 6.890625 -27.609375 L 4.703125 -31.671875 C 5.585938 -32.078125 6.597656 -32.441406 7.734375 -32.765625 C 8.703125 -33.046875 9.851562 -33.300781 11.1875 -33.53125 C 12.53125 -33.769531 14.007812 -33.890625 15.625 -33.890625 C 17.945312 -33.890625 19.863281 -33.570312 21.375 -32.9375 C 22.894531 -32.3125 24.085938 -31.429688 24.953125 -30.296875 C 25.828125 -29.171875 26.4375 -27.8125 26.78125 -26.21875 C 27.125 -24.632812 27.296875 -22.875 27.296875 -20.9375 L 27.296875 -5.453125 Z M 21.53125 -16.171875 C 20.96875 -16.253906 20.363281 -16.332031 19.71875 -16.40625 C 19.175781 -16.46875 18.550781 -16.53125 17.84375 -16.59375 C 17.132812 -16.65625 16.394531 -16.6875 15.625 -16.6875 C 14.488281 -16.6875 13.453125 -16.570312 12.515625 -16.34375 C 11.578125 -16.125 10.765625 -15.765625 10.078125 -15.265625 C 9.390625 -14.773438 8.851562 -14.132812 8.46875 -13.34375 C 8.082031 -12.5625 7.890625 -11.601562 7.890625 -10.46875 C 7.890625 -9.550781 8.039062 -8.71875 8.34375 -7.96875 C 8.644531 -7.226562 9.054688 -6.582031 9.578125 -6.03125 C 10.109375 -5.488281 10.734375 -5.070312 11.453125 -4.78125 C 12.171875 -4.488281 12.941406 -4.34375 13.765625 -4.34375 C 14.148438 -4.34375 14.5625 -4.394531 15 -4.5 C 15.4375 -4.613281 15.867188 -4.757812 16.296875 -4.9375 C 16.734375 -5.125 17.171875 -5.335938 17.609375 -5.578125 C 18.046875 -5.828125 18.457031 -6.070312 18.84375 -6.3125 C 19.75 -6.894531 20.644531 -7.5625 21.53125 -8.3125 Z M 21.53125 -16.171875"></path></g></g></g><g fill-opacity="1" fill="#004aad"><g transform="translate(130.620665, 276.29633)"><g><path d="M 20.359375 -28.765625 C 19.546875 -28.765625 18.742188 -28.597656 17.953125 -28.265625 C 17.171875 -27.941406 16.414062 -27.507812 15.6875 -26.96875 C 14.957031 -26.425781 14.269531 -25.789062 13.625 -25.0625 C 12.976562 -24.332031 12.378906 -23.5625 11.828125 -22.75 L 11.828125 0 L 6.0625 0 L 6.0625 -33.375 L 11.828125 -33.96875 L 11.828125 -27.15625 L 14.859375 -32.453125 C 15.128906 -32.617188 15.457031 -32.785156 15.84375 -32.953125 C 16.238281 -33.128906 16.6875 -33.28125 17.1875 -33.40625 C 17.695312 -33.539062 18.238281 -33.65625 18.8125 -33.75 C 19.394531 -33.84375 19.988281 -33.890625 20.59375 -33.890625 C 21.507812 -33.890625 22.273438 -33.804688 22.890625 -33.640625 C 23.503906 -33.484375 23.960938 -33.332031 24.265625 -33.1875 L 23.96875 -28.15625 C 23.664062 -28.25 23.207031 -28.375 22.59375 -28.53125 C 21.988281 -28.6875 21.242188 -28.765625 20.359375 -28.765625 Z M 20.359375 -28.765625"></path></g></g></g><g fill-opacity="1" fill="#004aad"><g transform="translate(154.883959, 276.29633)"><g><path d="M 11.828125 -11.40625 C 11.828125 -10.070312 11.898438 -8.953125 12.046875 -8.046875 C 12.203125 -7.148438 12.425781 -6.421875 12.71875 -5.859375 C 13.019531 -5.304688 13.382812 -4.914062 13.8125 -4.6875 C 14.25 -4.457031 14.75 -4.34375 15.3125 -4.34375 C 15.757812 -4.34375 16.164062 -4.363281 16.53125 -4.40625 C 16.894531 -4.457031 17.207031 -4.523438 17.46875 -4.609375 C 17.769531 -4.691406 18.046875 -4.785156 18.296875 -4.890625 L 20.390625 -1.21875 C 20.222656 -1.050781 19.960938 -0.867188 19.609375 -0.671875 C 19.253906 -0.484375 18.832031 -0.296875 18.34375 -0.109375 C 17.863281 0.0664062 17.316406 0.210938 16.703125 0.328125 C 16.085938 0.453125 15.425781 0.515625 14.71875 0.515625 C 12.894531 0.515625 11.414062 0.179688 10.28125 -0.484375 C 9.144531 -1.148438 8.265625 -2.054688 7.640625 -3.203125 C 7.015625 -4.359375 6.59375 -5.703125 6.375 -7.234375 C 6.164062 -8.765625 6.0625 -10.398438 6.0625 -12.140625 L 6.0625 -28.515625 L 1.515625 -28.515625 L 1.515625 -33.375 L 6.0625 -33.375 L 6.0625 -39.703125 L 11.671875 -43.078125 L 11.671875 -33.375 L 22 -33.375 L 21.390625 -28.515625 L 11.828125 -28.515625 Z M 11.828125 -11.40625"></path></g></g></g><g fill-opacity="1" fill="#004aad"><g transform="translate(179.147253, 276.29633)"><g><path d="M 20.046875 -27.875 C 19.679688 -28.0625 19.242188 -28.242188 18.734375 -28.421875 C 18.234375 -28.609375 17.707031 -28.769531 17.15625 -28.90625 C 16.613281 -29.050781 16.066406 -29.160156 15.515625 -29.234375 C 14.960938 -29.316406 14.429688 -29.359375 13.921875 -29.359375 C 11.773438 -29.359375 10.253906 -29.039062 9.359375 -28.40625 C 8.472656 -27.769531 8.03125 -26.816406 8.03125 -25.546875 C 8.03125 -24.691406 8.320312 -23.984375 8.90625 -23.421875 C 9.5 -22.867188 10.257812 -22.367188 11.1875 -21.921875 C 12.125 -21.484375 13.160156 -21.066406 14.296875 -20.671875 C 15.441406 -20.273438 16.5625 -19.804688 17.65625 -19.265625 C 18.445312 -18.878906 19.242188 -18.421875 20.046875 -17.890625 C 20.859375 -17.367188 21.585938 -16.753906 22.234375 -16.046875 C 22.878906 -15.335938 23.40625 -14.535156 23.8125 -13.640625 C 24.21875 -12.753906 24.421875 -11.753906 24.421875 -10.640625 C 24.421875 -8.597656 24.078125 -6.867188 23.390625 -5.453125 C 22.703125 -4.046875 21.765625 -2.898438 20.578125 -2.015625 C 19.398438 -1.140625 18.015625 -0.5 16.421875 -0.09375 C 14.835938 0.3125 13.144531 0.515625 11.34375 0.515625 C 10.65625 0.515625 9.875 0.445312 9 0.3125 C 8.132812 0.1875 7.265625 0.0078125 6.390625 -0.21875 C 5.523438 -0.457031 4.695312 -0.738281 3.90625 -1.0625 C 3.125 -1.382812 2.46875 -1.726562 1.9375 -2.09375 L 3.9375 -6.09375 C 4.425781 -5.851562 5.003906 -5.625 5.671875 -5.40625 C 6.335938 -5.195312 7.023438 -5.007812 7.734375 -4.84375 C 8.441406 -4.6875 9.144531 -4.5625 9.84375 -4.46875 C 10.539062 -4.382812 11.160156 -4.34375 11.703125 -4.34375 C 12.640625 -4.34375 13.535156 -4.4375 14.390625 -4.625 C 15.253906 -4.820312 16.015625 -5.128906 16.671875 -5.546875 C 17.328125 -5.972656 17.851562 -6.523438 18.25 -7.203125 C 18.644531 -7.878906 18.84375 -8.710938 18.84375 -9.703125 C 18.84375 -10.453125 18.679688 -11.109375 18.359375 -11.671875 C 18.046875 -12.242188 17.625 -12.742188 17.09375 -13.171875 C 16.5625 -13.609375 15.941406 -14.007812 15.234375 -14.375 C 14.523438 -14.738281 13.773438 -15.085938 12.984375 -15.421875 C 12.191406 -15.753906 11.378906 -16.097656 10.546875 -16.453125 C 9.722656 -16.804688 8.9375 -17.195312 8.1875 -17.625 C 7.476562 -18.03125 6.796875 -18.472656 6.140625 -18.953125 C 5.484375 -19.441406 4.898438 -19.988281 4.390625 -20.59375 C 3.890625 -21.207031 3.488281 -21.890625 3.1875 -22.640625 C 2.882812 -23.398438 2.734375 -24.265625 2.734375 -25.234375 C 2.734375 -26.773438 3.003906 -28.097656 3.546875 -29.203125 C 4.097656 -30.304688 4.867188 -31.203125 5.859375 -31.890625 C 6.847656 -32.578125 8.039062 -33.082031 9.4375 -33.40625 C 10.832031 -33.726562 12.367188 -33.890625 14.046875 -33.890625 C 14.816406 -33.890625 15.570312 -33.828125 16.3125 -33.703125 C 17.0625 -33.578125 17.78125 -33.414062 18.46875 -33.21875 C 19.15625 -33.03125 19.78125 -32.804688 20.34375 -32.546875 C 20.914062 -32.285156 21.40625 -32.023438 21.8125 -31.765625 Z M 20.046875 -27.875"></path></g></g></g><g fill-opacity="1" fill="#004aad"><g transform="translate(206.443451, 276.29633)"><g><path d="M 24.484375 -26.640625 C 23.691406 -27.347656 22.753906 -27.921875 21.671875 -28.359375 C 20.585938 -28.804688 19.472656 -29.03125 18.328125 -29.03125 C 16.628906 -29.03125 15.179688 -28.710938 13.984375 -28.078125 C 12.785156 -27.441406 11.816406 -26.578125 11.078125 -25.484375 C 10.347656 -24.390625 9.8125 -23.117188 9.46875 -21.671875 C 9.125 -20.222656 8.953125 -18.703125 8.953125 -17.109375 C 8.953125 -15.453125 9.109375 -13.867188 9.421875 -12.359375 C 9.734375 -10.859375 10.265625 -9.53125 11.015625 -8.375 C 11.765625 -7.21875 12.757812 -6.300781 14 -5.625 C 15.238281 -4.945312 16.789062 -4.609375 18.65625 -4.609375 C 20.21875 -4.609375 21.535156 -4.789062 22.609375 -5.15625 C 23.691406 -5.519531 24.53125 -5.90625 25.125 -6.3125 L 27.296875 -2.03125 C 26.171875 -1.257812 24.851562 -0.640625 23.34375 -0.171875 C 21.832031 0.285156 20.128906 0.515625 18.234375 0.515625 C 15.703125 0.515625 13.484375 0.015625 11.578125 -0.984375 C 9.679688 -1.984375 8.097656 -3.316406 6.828125 -4.984375 C 5.566406 -6.660156 4.617188 -8.582031 3.984375 -10.75 C 3.347656 -12.925781 3.03125 -15.175781 3.03125 -17.5 C 3.03125 -19.601562 3.335938 -21.640625 3.953125 -23.609375 C 4.578125 -25.585938 5.519531 -27.332031 6.78125 -28.84375 C 8.039062 -30.363281 9.632812 -31.582031 11.5625 -32.5 C 13.5 -33.425781 15.773438 -33.890625 18.390625 -33.890625 C 20.242188 -33.890625 21.90625 -33.597656 23.375 -33.015625 C 24.84375 -32.441406 26.210938 -31.457031 27.484375 -30.0625 Z M 24.484375 -26.640625"></path></g></g></g><g fill-opacity="1" fill="#004aad"><g transform="translate(236.772573, 276.29633)"><g><path d="M 18.171875 0.515625 C 15.921875 0.515625 13.867188 0.078125 12.015625 -0.796875 C 10.171875 -1.679688 8.582031 -2.894531 7.25 -4.4375 C 5.914062 -5.988281 4.878906 -7.820312 4.140625 -9.9375 C 3.398438 -12.050781 3.03125 -14.332031 3.03125 -16.78125 C 3.03125 -19.226562 3.382812 -21.492188 4.09375 -23.578125 C 4.800781 -25.671875 5.8125 -27.484375 7.125 -29.015625 C 8.4375 -30.546875 10.03125 -31.738281 11.90625 -32.59375 C 13.78125 -33.457031 15.867188 -33.890625 18.171875 -33.890625 C 20.410156 -33.890625 22.460938 -33.457031 24.328125 -32.59375 C 26.191406 -31.738281 27.789062 -30.546875 29.125 -29.015625 C 30.457031 -27.484375 31.5 -25.671875 32.25 -23.578125 C 33 -21.492188 33.375 -19.226562 33.375 -16.78125 C 33.375 -14.332031 33.015625 -12.050781 32.296875 -9.9375 C 31.578125 -7.820312 30.554688 -5.988281 29.234375 -4.4375 C 27.921875 -2.894531 26.320312 -1.679688 24.4375 -0.796875 C 22.5625 0.078125 20.472656 0.515625 18.171875 0.515625 Z M 27.609375 -15.953125 C 27.609375 -17.585938 27.429688 -19.191406 27.078125 -20.765625 C 26.722656 -22.347656 26.160156 -23.757812 25.390625 -25 C 24.617188 -26.25 23.625 -27.257812 22.40625 -28.03125 C 21.195312 -28.800781 19.742188 -29.1875 18.046875 -29.1875 C 16.429688 -29.1875 15.035156 -28.851562 13.859375 -28.1875 C 12.691406 -27.519531 11.734375 -26.628906 10.984375 -25.515625 C 10.234375 -24.398438 9.679688 -23.132812 9.328125 -21.71875 C 8.972656 -20.300781 8.796875 -18.847656 8.796875 -17.359375 C 8.796875 -15.710938 8.972656 -14.097656 9.328125 -12.515625 C 9.679688 -10.941406 10.238281 -9.539062 11 -8.3125 C 11.757812 -7.082031 12.738281 -6.085938 13.9375 -5.328125 C 15.144531 -4.566406 16.597656 -4.1875 18.296875 -4.1875 C 19.890625 -4.1875 21.269531 -4.519531 22.4375 -5.1875 C 23.613281 -5.851562 24.585938 -6.738281 25.359375 -7.84375 C 26.128906 -8.945312 26.695312 -10.203125 27.0625 -11.609375 C 27.425781 -13.023438 27.609375 -14.472656 27.609375 -15.953125 Z M 27.609375 -15.953125"></path></g></g></g><g fill-opacity="1" fill="#004aad"><g transform="translate(273.167524, 276.29633)"><g><path d="M 11.828125 -4.859375 L 16.8125 -4.859375 C 18.664062 -4.859375 20.273438 -5.164062 21.640625 -5.78125 C 23.003906 -6.394531 24.125 -7.257812 25 -8.375 C 25.882812 -9.488281 26.539062 -10.820312 26.96875 -12.375 C 27.394531 -13.9375 27.609375 -15.65625 27.609375 -17.53125 C 27.609375 -19.507812 27.414062 -21.222656 27.03125 -22.671875 C 26.644531 -24.117188 26.117188 -25.3125 25.453125 -26.25 C 24.785156 -27.195312 24.007812 -27.894531 23.125 -28.34375 C 22.25 -28.800781 21.316406 -29.03125 20.328125 -29.03125 C 19.335938 -29.03125 18.410156 -28.898438 17.546875 -28.640625 C 16.691406 -28.390625 15.90625 -28.070312 15.1875 -27.6875 C 14.46875 -27.3125 13.820312 -26.890625 13.25 -26.421875 C 12.6875 -25.953125 12.210938 -25.507812 11.828125 -25.09375 Z M 6.0625 15.171875 L 6.0625 -33.375 L 11.828125 -33.96875 L 11.828125 -28.640625 L 14.71875 -32.484375 C 15.300781 -32.828125 16.132812 -33.144531 17.21875 -33.4375 C 18.300781 -33.738281 19.628906 -33.890625 21.203125 -33.890625 C 22.878906 -33.890625 24.457031 -33.492188 25.9375 -32.703125 C 27.414062 -31.910156 28.703125 -30.785156 29.796875 -29.328125 C 30.898438 -27.878906 31.769531 -26.125 32.40625 -24.0625 C 33.050781 -22 33.375 -19.691406 33.375 -17.140625 C 33.375 -14.648438 32.96875 -12.359375 32.15625 -10.265625 C 31.34375 -8.171875 30.191406 -6.359375 28.703125 -4.828125 C 27.222656 -3.304688 25.425781 -2.117188 23.3125 -1.265625 C 21.195312 -0.421875 18.835938 0 16.234375 0 L 11.828125 0 L 11.828125 15.171875 Z M 6.0625 15.171875"></path></g></g></g><g fill-opacity="1" fill="#004aad"><g transform="translate(309.562476, 276.29633)"><g><path d="M 29.296875 -3.90625 C 28.671875 -3.257812 27.984375 -2.660156 27.234375 -2.109375 C 26.492188 -1.566406 25.664062 -1.097656 24.75 -0.703125 C 23.84375 -0.316406 22.835938 -0.0195312 21.734375 0.1875 C 20.628906 0.40625 19.398438 0.515625 18.046875 0.515625 C 15.359375 0.515625 13.0625 0.0390625 11.15625 -0.90625 C 9.257812 -1.851562 7.707031 -3.125 6.5 -4.71875 C 5.300781 -6.320312 4.421875 -8.15625 3.859375 -10.21875 C 3.304688 -12.28125 3.03125 -14.4375 3.03125 -16.6875 C 3.03125 -18.125 3.160156 -19.546875 3.421875 -20.953125 C 3.691406 -22.359375 4.085938 -23.695312 4.609375 -24.96875 C 5.140625 -26.238281 5.796875 -27.421875 6.578125 -28.515625 C 7.367188 -29.609375 8.289062 -30.546875 9.34375 -31.328125 C 10.394531 -32.117188 11.582031 -32.742188 12.90625 -33.203125 C 14.226562 -33.660156 15.691406 -33.890625 17.296875 -33.890625 C 19.472656 -33.890625 21.359375 -33.535156 22.953125 -32.828125 C 24.554688 -32.117188 25.882812 -31.125 26.9375 -29.84375 C 27.988281 -28.570312 28.765625 -27.046875 29.265625 -25.265625 C 29.773438 -23.484375 30.03125 -21.515625 30.03125 -19.359375 C 30.03125 -18.722656 30.007812 -18.03125 29.96875 -17.28125 C 29.925781 -16.539062 29.867188 -15.835938 29.796875 -15.171875 L 8.796875 -15.171875 C 8.796875 -13.648438 9.003906 -12.234375 9.421875 -10.921875 C 9.835938 -9.609375 10.414062 -8.457031 11.15625 -7.46875 C 11.90625 -6.488281 12.8125 -5.722656 13.875 -5.171875 C 14.9375 -4.617188 16.125 -4.34375 17.4375 -4.34375 C 18.738281 -4.34375 19.867188 -4.4375 20.828125 -4.625 C 21.785156 -4.820312 22.609375 -5.054688 23.296875 -5.328125 C 23.984375 -5.597656 24.546875 -5.875 24.984375 -6.15625 C 25.421875 -6.4375 25.757812 -6.660156 26 -6.828125 Z M 24.265625 -19.71875 C 24.285156 -19.9375 24.300781 -20.15625 24.3125 -20.375 C 24.320312 -20.601562 24.328125 -20.828125 24.328125 -21.046875 C 24.328125 -22.203125 24.195312 -23.265625 23.9375 -24.234375 C 23.675781 -25.203125 23.273438 -26.046875 22.734375 -26.765625 C 22.203125 -27.484375 21.519531 -28.046875 20.6875 -28.453125 C 19.863281 -28.859375 18.882812 -29.0625 17.75 -29.0625 C 16.394531 -29.0625 15.234375 -28.84375 14.265625 -28.40625 C 13.304688 -27.96875 12.5 -27.410156 11.84375 -26.734375 C 11.1875 -26.054688 10.660156 -25.3125 10.265625 -24.5 C 9.867188 -23.695312 9.570312 -22.929688 9.375 -22.203125 L 7.796875 -18.90625 L 13.203125 -19.71875 Z M 24.265625 -19.71875"></path></g></g></g><g fill-opacity="1" fill="#004aad"><g transform="translate(342.924935, 276.29633)"><g></g></g></g><g fill-opacity="1" fill="#004aad"><g transform="translate(18.394765, 360.113644)"><g><path d="M 1.875 0 L 14.71875 -39.4375 L 15.78125 -45.5 L 22.359375 -46.109375 L 37.46875 0 L 31.390625 0 L 26.90625 -13.65625 L 11.890625 -13.65625 L 7.46875 0 Z M 19.390625 -41.25 L 18.296875 -33.375 L 13.375 -18.203125 L 25.421875 -18.203125 L 20.484375 -33.375 Z M 19.390625 -41.25"></path></g></g></g><g fill-opacity="1" fill="#004aad"><g transform="translate(57.822619, 360.113644)"><g><path d="M 24.578125 -33.375 L 30.328125 -33.96875 L 30.328125 0 L 24.578125 0 L 24.578125 -4.9375 L 22.71875 -1.703125 C 22.351562 -1.453125 21.921875 -1.195312 21.421875 -0.9375 C 20.929688 -0.675781 20.375 -0.4375 19.75 -0.21875 C 19.125 -0.0078125 18.4375 0.160156 17.6875 0.296875 C 16.9375 0.441406 16.144531 0.515625 15.3125 0.515625 C 13.695312 0.515625 12.304688 0.222656 11.140625 -0.359375 C 9.984375 -0.953125 9.03125 -1.773438 8.28125 -2.828125 C 7.53125 -3.878906 6.972656 -5.125 6.609375 -6.5625 C 6.242188 -8.007812 6.0625 -9.582031 6.0625 -11.28125 L 6.0625 -33.375 L 11.828125 -33.96875 L 11.828125 -11.28125 C 11.828125 -9.101562 12.265625 -7.398438 13.140625 -6.171875 C 14.023438 -4.953125 15.410156 -4.34375 17.296875 -4.34375 C 17.984375 -4.34375 18.660156 -4.453125 19.328125 -4.671875 C 19.992188 -4.890625 20.640625 -5.171875 21.265625 -5.515625 C 21.890625 -5.859375 22.476562 -6.234375 23.03125 -6.640625 C 23.59375 -7.046875 24.109375 -7.441406 24.578125 -7.828125 Z M 24.578125 -33.375"></path></g></g></g><g fill-opacity="1" fill="#004aad"><g transform="translate(94.217571, 360.113644)"><g><path d="M 11.828125 -11.40625 C 11.828125 -10.070312 11.898438 -8.953125 12.046875 -8.046875 C 12.203125 -7.148438 12.425781 -6.421875 12.71875 -5.859375 C 13.019531 -5.304688 13.382812 -4.914062 13.8125 -4.6875 C 14.25 -4.457031 14.75 -4.34375 15.3125 -4.34375 C 15.757812 -4.34375 16.164062 -4.363281 16.53125 -4.40625 C 16.894531 -4.457031 17.207031 -4.523438 17.46875 -4.609375 C 17.769531 -4.691406 18.046875 -4.785156 18.296875 -4.890625 L 20.390625 -1.21875 C 20.222656 -1.050781 19.960938 -0.867188 19.609375 -0.671875 C 19.253906 -0.484375 18.832031 -0.296875 18.34375 -0.109375 C 17.863281 0.0664062 17.316406 0.210938 16.703125 0.328125 C 16.085938 0.453125 15.425781 0.515625 14.71875 0.515625 C 12.894531 0.515625 11.414062 0.179688 10.28125 -0.484375 C 9.144531 -1.148438 8.265625 -2.054688 7.640625 -3.203125 C 7.015625 -4.359375 6.59375 -5.703125 6.375 -7.234375 C 6.164062 -8.765625 6.0625 -10.398438 6.0625 -12.140625 L 6.0625 -28.515625 L 1.515625 -28.515625 L 1.515625 -33.375 L 6.0625 -33.375 L 6.0625 -39.703125 L 11.671875 -43.078125 L 11.671875 -33.375 L 22 -33.375 L 21.390625 -28.515625 L 11.828125 -28.515625 Z M 11.828125 -11.40625"></path></g></g></g><g fill-opacity="1" fill="#004aad"><g transform="translate(118.480865, 360.113644)"><g><path d="M 18.171875 0.515625 C 15.921875 0.515625 13.867188 0.078125 12.015625 -0.796875 C 10.171875 -1.679688 8.582031 -2.894531 7.25 -4.4375 C 5.914062 -5.988281 4.878906 -7.820312 4.140625 -9.9375 C 3.398438 -12.050781 3.03125 -14.332031 3.03125 -16.78125 C 3.03125 -19.226562 3.382812 -21.492188 4.09375 -23.578125 C 4.800781 -25.671875 5.8125 -27.484375 7.125 -29.015625 C 8.4375 -30.546875 10.03125 -31.738281 11.90625 -32.59375 C 13.78125 -33.457031 15.867188 -33.890625 18.171875 -33.890625 C 20.410156 -33.890625 22.460938 -33.457031 24.328125 -32.59375 C 26.191406 -31.738281 27.789062 -30.546875 29.125 -29.015625 C 30.457031 -27.484375 31.5 -25.671875 32.25 -23.578125 C 33 -21.492188 33.375 -19.226562 33.375 -16.78125 C 33.375 -14.332031 33.015625 -12.050781 32.296875 -9.9375 C 31.578125 -7.820312 30.554688 -5.988281 29.234375 -4.4375 C 27.921875 -2.894531 26.320312 -1.679688 24.4375 -0.796875 C 22.5625 0.078125 20.472656 0.515625 18.171875 0.515625 Z M 27.609375 -15.953125 C 27.609375 -17.585938 27.429688 -19.191406 27.078125 -20.765625 C 26.722656 -22.347656 26.160156 -23.757812 25.390625 -25 C 24.617188 -26.25 23.625 -27.257812 22.40625 -28.03125 C 21.195312 -28.800781 19.742188 -29.1875 18.046875 -29.1875 C 16.429688 -29.1875 15.035156 -28.851562 13.859375 -28.1875 C 12.691406 -27.519531 11.734375 -26.628906 10.984375 -25.515625 C 10.234375 -24.398438 9.679688 -23.132812 9.328125 -21.71875 C 8.972656 -20.300781 8.796875 -18.847656 8.796875 -17.359375 C 8.796875 -15.710938 8.972656 -14.097656 9.328125 -12.515625 C 9.679688 -10.941406 10.238281 -9.539062 11 -8.3125 C 11.757812 -7.082031 12.738281 -6.085938 13.9375 -5.328125 C 15.144531 -4.566406 16.597656 -4.1875 18.296875 -4.1875 C 19.890625 -4.1875 21.269531 -4.519531 22.4375 -5.1875 C 23.613281 -5.851562 24.585938 -6.738281 25.359375 -7.84375 C 26.128906 -8.945312 26.695312 -10.203125 27.0625 -11.609375 C 27.425781 -13.023438 27.609375 -14.472656 27.609375 -15.953125 Z M 27.609375 -15.953125"></path></g></g></g><g fill-opacity="1" fill="#004aad"><g transform="translate(154.875816, 360.113644)"><g><path d="M 11.828125 0 L 6.0625 0 L 6.0625 -33.375 L 11.828125 -33.96875 L 11.828125 -28.421875 L 13.6875 -31.671875 C 14.050781 -31.910156 14.503906 -32.160156 15.046875 -32.421875 C 15.585938 -32.691406 16.203125 -32.929688 16.890625 -33.140625 C 17.578125 -33.347656 18.316406 -33.523438 19.109375 -33.671875 C 19.898438 -33.816406 20.707031 -33.890625 21.53125 -33.890625 C 23.800781 -33.890625 25.644531 -33.335938 27.0625 -32.234375 C 28.476562 -31.128906 29.394531 -29.71875 29.8125 -28 L 32.125 -31.546875 C 32.832031 -32.117188 33.832031 -32.648438 35.125 -33.140625 C 36.425781 -33.640625 37.914062 -33.890625 39.59375 -33.890625 C 41.125 -33.890625 42.4375 -33.628906 43.53125 -33.109375 C 44.625 -32.597656 45.519531 -31.851562 46.21875 -30.875 C 46.914062 -29.90625 47.425781 -28.734375 47.75 -27.359375 C 48.070312 -25.984375 48.234375 -24.445312 48.234375 -22.75 L 48.234375 0 L 42.46875 0 L 42.46875 -22.453125 C 42.46875 -23.546875 42.390625 -24.5 42.234375 -25.3125 C 42.085938 -26.132812 41.828125 -26.820312 41.453125 -27.375 C 41.078125 -27.9375 40.578125 -28.351562 39.953125 -28.625 C 39.328125 -28.894531 38.546875 -29.03125 37.609375 -29.03125 C 37.023438 -29.03125 36.414062 -28.925781 35.78125 -28.71875 C 35.144531 -28.519531 34.503906 -28.253906 33.859375 -27.921875 C 33.210938 -27.585938 32.578125 -27.203125 31.953125 -26.765625 C 31.335938 -26.335938 30.757812 -25.898438 30.21875 -25.453125 C 30.28125 -24.867188 30.3125 -24.378906 30.3125 -23.984375 C 30.320312 -23.585938 30.328125 -23.078125 30.328125 -22.453125 L 30.328125 0 L 24.578125 0 L 24.578125 -22.453125 C 24.578125 -24.628906 24.210938 -26.269531 23.484375 -27.375 C 22.753906 -28.476562 21.445312 -29.03125 19.5625 -29.03125 C 18.957031 -29.03125 18.3125 -28.9375 17.625 -28.75 C 16.9375 -28.570312 16.253906 -28.320312 15.578125 -28 C 14.898438 -27.675781 14.238281 -27.304688 13.59375 -26.890625 C 12.945312 -26.472656 12.359375 -26.046875 11.828125 -25.609375 Z M 11.828125 0"></path></g></g></g><g fill-opacity="1" fill="#004aad"><g transform="translate(209.468233, 360.113644)"><g><path d="M 27.90625 0 L 21.53125 0 L 21.53125 -4.921875 L 18.6875 -1.515625 C 18.34375 -1.253906 17.945312 -1 17.5 -0.75 C 17.0625 -0.507812 16.613281 -0.289062 16.15625 -0.09375 C 15.695312 0.09375 15.238281 0.238281 14.78125 0.34375 C 14.332031 0.457031 13.914062 0.515625 13.53125 0.515625 C 12.007812 0.515625 10.554688 0.28125 9.171875 -0.1875 C 7.785156 -0.664062 6.570312 -1.363281 5.53125 -2.28125 C 4.488281 -3.207031 3.660156 -4.351562 3.046875 -5.71875 C 2.429688 -7.082031 2.125 -8.65625 2.125 -10.4375 C 2.125 -12.3125 2.503906 -13.941406 3.265625 -15.328125 C 4.023438 -16.710938 4.992188 -17.863281 6.171875 -18.78125 C 7.359375 -19.707031 8.675781 -20.394531 10.125 -20.84375 C 11.582031 -21.300781 13.007812 -21.53125 14.40625 -21.53125 C 15.5625 -21.53125 16.578125 -21.46875 17.453125 -21.34375 C 18.335938 -21.226562 19.082031 -21.09375 19.6875 -20.9375 C 20.394531 -20.75 21.007812 -20.546875 21.53125 -20.328125 L 21.53125 -21.390625 C 21.53125 -22.578125 21.457031 -23.644531 21.3125 -24.59375 C 21.175781 -25.550781 20.890625 -26.359375 20.453125 -27.015625 C 20.023438 -27.671875 19.398438 -28.171875 18.578125 -28.515625 C 17.765625 -28.859375 16.675781 -29.03125 15.3125 -29.03125 C 14.226562 -29.03125 13.175781 -28.953125 12.15625 -28.796875 C 11.144531 -28.648438 10.25 -28.484375 9.46875 -28.296875 C 8.53125 -28.078125 7.671875 -27.847656 6.890625 -27.609375 L 4.703125 -31.671875 C 5.585938 -32.078125 6.597656 -32.441406 7.734375 -32.765625 C 8.703125 -33.046875 9.851562 -33.300781 11.1875 -33.53125 C 12.53125 -33.769531 14.007812 -33.890625 15.625 -33.890625 C 17.945312 -33.890625 19.863281 -33.570312 21.375 -32.9375 C 22.894531 -32.3125 24.085938 -31.429688 24.953125 -30.296875 C 25.828125 -29.171875 26.4375 -27.8125 26.78125 -26.21875 C 27.125 -24.632812 27.296875 -22.875 27.296875 -20.9375 L 27.296875 -5.453125 Z M 21.53125 -16.171875 C 20.96875 -16.253906 20.363281 -16.332031 19.71875 -16.40625 C 19.175781 -16.46875 18.550781 -16.53125 17.84375 -16.59375 C 17.132812 -16.65625 16.394531 -16.6875 15.625 -16.6875 C 14.488281 -16.6875 13.453125 -16.570312 12.515625 -16.34375 C 11.578125 -16.125 10.765625 -15.765625 10.078125 -15.265625 C 9.390625 -14.773438 8.851562 -14.132812 8.46875 -13.34375 C 8.082031 -12.5625 7.890625 -11.601562 7.890625 -10.46875 C 7.890625 -9.550781 8.039062 -8.71875 8.34375 -7.96875 C 8.644531 -7.226562 9.054688 -6.582031 9.578125 -6.03125 C 10.109375 -5.488281 10.734375 -5.070312 11.453125 -4.78125 C 12.171875 -4.488281 12.941406 -4.34375 13.765625 -4.34375 C 14.148438 -4.34375 14.5625 -4.394531 15 -4.5 C 15.4375 -4.613281 15.867188 -4.757812 16.296875 -4.9375 C 16.734375 -5.125 17.171875 -5.335938 17.609375 -5.578125 C 18.046875 -5.828125 18.457031 -6.070312 18.84375 -6.3125 C 19.75 -6.894531 20.644531 -7.5625 21.53125 -8.3125 Z M 21.53125 -16.171875"></path></g></g></g><g fill-opacity="1" fill="#004aad"><g transform="translate(241.313807, 360.113644)"><g><path d="M 11.828125 -11.40625 C 11.828125 -10.070312 11.898438 -8.953125 12.046875 -8.046875 C 12.203125 -7.148438 12.425781 -6.421875 12.71875 -5.859375 C 13.019531 -5.304688 13.382812 -4.914062 13.8125 -4.6875 C 14.25 -4.457031 14.75 -4.34375 15.3125 -4.34375 C 15.757812 -4.34375 16.164062 -4.363281 16.53125 -4.40625 C 16.894531 -4.457031 17.207031 -4.523438 17.46875 -4.609375 C 17.769531 -4.691406 18.046875 -4.785156 18.296875 -4.890625 L 20.390625 -1.21875 C 20.222656 -1.050781 19.960938 -0.867188 19.609375 -0.671875 C 19.253906 -0.484375 18.832031 -0.296875 18.34375 -0.109375 C 17.863281 0.0664062 17.316406 0.210938 16.703125 0.328125 C 16.085938 0.453125 15.425781 0.515625 14.71875 0.515625 C 12.894531 0.515625 11.414062 0.179688 10.28125 -0.484375 C 9.144531 -1.148438 8.265625 -2.054688 7.640625 -3.203125 C 7.015625 -4.359375 6.59375 -5.703125 6.375 -7.234375 C 6.164062 -8.765625 6.0625 -10.398438 6.0625 -12.140625 L 6.0625 -28.515625 L 1.515625 -28.515625 L 1.515625 -33.375 L 6.0625 -33.375 L 6.0625 -39.703125 L 11.671875 -43.078125 L 11.671875 -33.375 L 22 -33.375 L 21.390625 -28.515625 L 11.828125 -28.515625 Z M 11.828125 -11.40625"></path></g></g></g><g fill-opacity="1" fill="#004aad"><g transform="translate(265.577101, 360.113644)"><g><path d="M 11.828125 0 L 6.0625 0 L 6.0625 -32 L 11.828125 -32.609375 Z M 5.890625 -45.5 L 12.015625 -45.5 L 12.015625 -39.4375 L 5.890625 -39.4375 Z M 5.890625 -45.5"></path></g></g></g><g fill-opacity="1" fill="#004aad"><g transform="translate(283.774566, 360.113644)"><g><path d="M 18.171875 0.515625 C 15.921875 0.515625 13.867188 0.078125 12.015625 -0.796875 C 10.171875 -1.679688 8.582031 -2.894531 7.25 -4.4375 C 5.914062 -5.988281 4.878906 -7.820312 4.140625 -9.9375 C 3.398438 -12.050781 3.03125 -14.332031 3.03125 -16.78125 C 3.03125 -19.226562 3.382812 -21.492188 4.09375 -23.578125 C 4.800781 -25.671875 5.8125 -27.484375 7.125 -29.015625 C 8.4375 -30.546875 10.03125 -31.738281 11.90625 -32.59375 C 13.78125 -33.457031 15.867188 -33.890625 18.171875 -33.890625 C 20.410156 -33.890625 22.460938 -33.457031 24.328125 -32.59375 C 26.191406 -31.738281 27.789062 -30.546875 29.125 -29.015625 C 30.457031 -27.484375 31.5 -25.671875 32.25 -23.578125 C 33 -21.492188 33.375 -19.226562 33.375 -16.78125 C 33.375 -14.332031 33.015625 -12.050781 32.296875 -9.9375 C 31.578125 -7.820312 30.554688 -5.988281 29.234375 -4.4375 C 27.921875 -2.894531 26.320312 -1.679688 24.4375 -0.796875 C 22.5625 0.078125 20.472656 0.515625 18.171875 0.515625 Z M 27.609375 -15.953125 C 27.609375 -17.585938 27.429688 -19.191406 27.078125 -20.765625 C 26.722656 -22.347656 26.160156 -23.757812 25.390625 -25 C 24.617188 -26.25 23.625 -27.257812 22.40625 -28.03125 C 21.195312 -28.800781 19.742188 -29.1875 18.046875 -29.1875 C 16.429688 -29.1875 15.035156 -28.851562 13.859375 -28.1875 C 12.691406 -27.519531 11.734375 -26.628906 10.984375 -25.515625 C 10.234375 -24.398438 9.679688 -23.132812 9.328125 -21.71875 C 8.972656 -20.300781 8.796875 -18.847656 8.796875 -17.359375 C 8.796875 -15.710938 8.972656 -14.097656 9.328125 -12.515625 C 9.679688 -10.941406 10.238281 -9.539062 11 -8.3125 C 11.757812 -7.082031 12.738281 -6.085938 13.9375 -5.328125 C 15.144531 -4.566406 16.597656 -4.1875 18.296875 -4.1875 C 19.890625 -4.1875 21.269531 -4.519531 22.4375 -5.1875 C 23.613281 -5.851562 24.585938 -6.738281 25.359375 -7.84375 C 26.128906 -8.945312 26.695312 -10.203125 27.0625 -11.609375 C 27.425781 -13.023438 27.609375 -14.472656 27.609375 -15.953125 Z M 27.609375 -15.953125"></path></g></g></g><g fill-opacity="1" fill="#004aad"><g transform="translate(320.169518, 360.113644)"><g><path d="M 11.828125 0 L 6.0625 0 L 6.0625 -33.375 L 11.828125 -33.96875 L 11.828125 -28.421875 L 13.6875 -31.671875 C 14.050781 -31.910156 14.515625 -32.160156 15.078125 -32.421875 C 15.640625 -32.691406 16.269531 -32.929688 16.96875 -33.140625 C 17.664062 -33.347656 18.421875 -33.523438 19.234375 -33.671875 C 20.046875 -33.816406 20.863281 -33.890625 21.6875 -33.890625 C 23.289062 -33.890625 24.640625 -33.628906 25.734375 -33.109375 C 26.835938 -32.597656 27.734375 -31.851562 28.421875 -30.875 C 29.109375 -29.90625 29.597656 -28.734375 29.890625 -27.359375 C 30.179688 -25.984375 30.328125 -24.445312 30.328125 -22.75 L 30.328125 0 L 24.578125 0 L 24.578125 -22.75 C 24.578125 -23.84375 24.5 -24.78125 24.34375 -25.5625 C 24.1875 -26.351562 23.921875 -27.003906 23.546875 -27.515625 C 23.179688 -28.035156 22.679688 -28.414062 22.046875 -28.65625 C 21.421875 -28.90625 20.644531 -29.03125 19.71875 -29.03125 C 19.03125 -29.03125 18.332031 -28.921875 17.625 -28.703125 C 16.914062 -28.492188 16.222656 -28.222656 15.546875 -27.890625 C 14.867188 -27.554688 14.210938 -27.1875 13.578125 -26.78125 C 12.941406 -26.382812 12.359375 -25.992188 11.828125 -25.609375 Z M 11.828125 0"></path></g></g></g></svg>